<mxfile host="app.diagrams.net" modified="2022-06-20T08:05:34.894Z" agent="5.0 (Windows NT 10.0; Win64; x64) AppleWebKit/537.36 (KHTML, like Gecko) Chrome/102.0.0.0 Safari/537.36" etag="CSIF8c4P5bdm-2uHjD03" version="20.0.1" type="github">
  <diagram id="ejOiZszBdOkqf7VxwGNQ" name="Page-1">
    <mxGraphModel dx="4192" dy="1834" grid="1" gridSize="10" guides="1" tooltips="1" connect="1" arrows="1" fold="1" page="1" pageScale="1" pageWidth="850" pageHeight="1100" math="0" shadow="0">
      <root>
        <mxCell id="0" />
        <mxCell id="1" parent="0" />
        <mxCell id="KpB_KngCnUkT5IyetJgM-57" value="" style="rounded=0;whiteSpace=wrap;html=1;fillColor=none;dashed=1;" parent="1" vertex="1">
          <mxGeometry x="-384" y="532.25" width="934" height="478.75" as="geometry" />
        </mxCell>
        <mxCell id="KpB_KngCnUkT5IyetJgM-107" style="edgeStyle=orthogonalEdgeStyle;rounded=0;orthogonalLoop=1;jettySize=auto;html=1;entryX=0.28;entryY=0.28;entryDx=0;entryDy=0;entryPerimeter=0;" parent="1" source="KpB_KngCnUkT5IyetJgM-99" target="KpB_KngCnUkT5IyetJgM-81" edge="1">
          <mxGeometry relative="1" as="geometry">
            <Array as="points">
              <mxPoint x="-202" y="615" />
              <mxPoint x="-202" y="615" />
            </Array>
          </mxGeometry>
        </mxCell>
        <mxCell id="KpB_KngCnUkT5IyetJgM-99" value="" style="rounded=0;whiteSpace=wrap;html=1;fillColor=none;dashed=1;" parent="1" vertex="1">
          <mxGeometry x="-342" y="581" width="150" height="390" as="geometry" />
        </mxCell>
        <mxCell id="KpB_KngCnUkT5IyetJgM-106" style="edgeStyle=orthogonalEdgeStyle;rounded=0;orthogonalLoop=1;jettySize=auto;html=1;entryX=0.14;entryY=0.65;entryDx=0;entryDy=0;entryPerimeter=0;" parent="1" source="KpB_KngCnUkT5IyetJgM-100" target="KpB_KngCnUkT5IyetJgM-91" edge="1">
          <mxGeometry relative="1" as="geometry">
            <Array as="points">
              <mxPoint x="208" y="626" />
              <mxPoint x="208" y="626" />
            </Array>
          </mxGeometry>
        </mxCell>
        <mxCell id="KpB_KngCnUkT5IyetJgM-100" value="" style="rounded=0;whiteSpace=wrap;html=1;fillColor=none;dashed=1;" parent="1" vertex="1">
          <mxGeometry x="43" y="567" width="140" height="296" as="geometry" />
        </mxCell>
        <mxCell id="KpB_KngCnUkT5IyetJgM-55" value="" style="rounded=0;whiteSpace=wrap;html=1;fillColor=none;dashed=1;" parent="1" vertex="1">
          <mxGeometry x="-402" y="93" width="862" height="327" as="geometry" />
        </mxCell>
        <mxCell id="KpB_KngCnUkT5IyetJgM-7" value="Dev VPC" style="sketch=0;outlineConnect=0;gradientColor=none;html=1;whiteSpace=wrap;fontSize=12;fontStyle=0;shape=mxgraph.aws4.group;grIcon=mxgraph.aws4.group_vpc;strokeColor=#879196;fillColor=none;verticalAlign=top;align=left;spacingLeft=30;fontColor=#879196;dashed=0;" parent="1" vertex="1">
          <mxGeometry x="680" width="390" height="320" as="geometry" />
        </mxCell>
        <mxCell id="KpB_KngCnUkT5IyetJgM-19" style="edgeStyle=orthogonalEdgeStyle;rounded=0;orthogonalLoop=1;jettySize=auto;html=1;" parent="1" source="KpB_KngCnUkT5IyetJgM-1" target="KpB_KngCnUkT5IyetJgM-3" edge="1">
          <mxGeometry relative="1" as="geometry" />
        </mxCell>
        <mxCell id="KpB_KngCnUkT5IyetJgM-77" value="Source" style="edgeLabel;html=1;align=center;verticalAlign=middle;resizable=0;points=[];" parent="KpB_KngCnUkT5IyetJgM-19" vertex="1" connectable="0">
          <mxGeometry x="-0.3076" y="1" relative="1" as="geometry">
            <mxPoint x="10" y="-13" as="offset" />
          </mxGeometry>
        </mxCell>
        <mxCell id="KpB_KngCnUkT5IyetJgM-1" value="" style="sketch=0;points=[[0,0,0],[0.25,0,0],[0.5,0,0],[0.75,0,0],[1,0,0],[0,1,0],[0.25,1,0],[0.5,1,0],[0.75,1,0],[1,1,0],[0,0.25,0],[0,0.5,0],[0,0.75,0],[1,0.25,0],[1,0.5,0],[1,0.75,0]];outlineConnect=0;fontColor=#232F3E;gradientColor=#4D72F3;gradientDirection=north;fillColor=#3334B9;strokeColor=#ffffff;dashed=0;verticalLabelPosition=bottom;verticalAlign=top;align=center;html=1;fontSize=12;fontStyle=0;aspect=fixed;shape=mxgraph.aws4.resourceIcon;resIcon=mxgraph.aws4.codecommit;" parent="1" vertex="1">
          <mxGeometry x="-372" y="153" width="78" height="78" as="geometry" />
        </mxCell>
        <mxCell id="KpB_KngCnUkT5IyetJgM-2" value="Source code&lt;br&gt;(Code Commit)" style="text;html=1;align=center;verticalAlign=middle;resizable=0;points=[];autosize=1;strokeColor=none;fillColor=none;" parent="1" vertex="1">
          <mxGeometry x="-383" y="238" width="100" height="30" as="geometry" />
        </mxCell>
        <mxCell id="dyizjhoTMHPbMdRWWlDq-3" style="edgeStyle=orthogonalEdgeStyle;rounded=0;orthogonalLoop=1;jettySize=auto;html=1;" edge="1" parent="1" source="KpB_KngCnUkT5IyetJgM-3" target="dyizjhoTMHPbMdRWWlDq-2">
          <mxGeometry relative="1" as="geometry">
            <Array as="points">
              <mxPoint x="-10" y="192" />
              <mxPoint x="-10" y="192" />
            </Array>
          </mxGeometry>
        </mxCell>
        <mxCell id="KpB_KngCnUkT5IyetJgM-3" value="" style="sketch=0;points=[[0,0,0],[0.25,0,0],[0.5,0,0],[0.75,0,0],[1,0,0],[0,1,0],[0.25,1,0],[0.5,1,0],[0.75,1,0],[1,1,0],[0,0.25,0],[0,0.5,0],[0,0.75,0],[1,0.25,0],[1,0.5,0],[1,0.75,0]];outlineConnect=0;fontColor=#232F3E;gradientColor=#4D72F3;gradientDirection=north;fillColor=#3334B9;strokeColor=#ffffff;dashed=0;verticalLabelPosition=bottom;verticalAlign=top;align=center;html=1;fontSize=12;fontStyle=0;aspect=fixed;shape=mxgraph.aws4.resourceIcon;resIcon=mxgraph.aws4.codebuild;" parent="1" vertex="1">
          <mxGeometry x="-172" y="153" width="78" height="78" as="geometry" />
        </mxCell>
        <mxCell id="KpB_KngCnUkT5IyetJgM-4" value="Build code&lt;br&gt;(CodeBuild)" style="text;html=1;align=center;verticalAlign=middle;resizable=0;points=[];autosize=1;strokeColor=none;fillColor=none;" parent="1" vertex="1">
          <mxGeometry x="-173" y="238" width="80" height="30" as="geometry" />
        </mxCell>
        <mxCell id="KpB_KngCnUkT5IyetJgM-40" style="edgeStyle=orthogonalEdgeStyle;rounded=0;orthogonalLoop=1;jettySize=auto;html=1;" parent="1" source="KpB_KngCnUkT5IyetJgM-113" target="KpB_KngCnUkT5IyetJgM-34" edge="1">
          <mxGeometry relative="1" as="geometry">
            <Array as="points">
              <mxPoint x="650" y="190" />
              <mxPoint x="650" y="860" />
            </Array>
          </mxGeometry>
        </mxCell>
        <mxCell id="KpB_KngCnUkT5IyetJgM-118" style="edgeStyle=orthogonalEdgeStyle;rounded=0;orthogonalLoop=1;jettySize=auto;html=1;" parent="1" source="KpB_KngCnUkT5IyetJgM-5" target="KpB_KngCnUkT5IyetJgM-10" edge="1">
          <mxGeometry relative="1" as="geometry">
            <Array as="points">
              <mxPoint x="70" y="130" />
            </Array>
          </mxGeometry>
        </mxCell>
        <mxCell id="KpB_KngCnUkT5IyetJgM-5" value="" style="sketch=0;points=[[0,0,0],[0.25,0,0],[0.5,0,0],[0.75,0,0],[1,0,0],[0,1,0],[0.25,1,0],[0.5,1,0],[0.75,1,0],[1,1,0],[0,0.25,0],[0,0.5,0],[0,0.75,0],[1,0.25,0],[1,0.5,0],[1,0.75,0]];outlineConnect=0;fontColor=#232F3E;gradientColor=#4D72F3;gradientDirection=north;fillColor=#3334B9;strokeColor=#ffffff;dashed=0;verticalLabelPosition=bottom;verticalAlign=top;align=center;html=1;fontSize=12;fontStyle=0;aspect=fixed;shape=mxgraph.aws4.resourceIcon;resIcon=mxgraph.aws4.codedeploy;" parent="1" vertex="1">
          <mxGeometry x="28" y="153" width="78" height="78" as="geometry" />
        </mxCell>
        <mxCell id="KpB_KngCnUkT5IyetJgM-6" value="Deploy Dev&lt;br&gt;(CodeDeploy)" style="text;html=1;align=center;verticalAlign=middle;resizable=0;points=[];autosize=1;strokeColor=none;fillColor=none;" parent="1" vertex="1">
          <mxGeometry x="22" y="238" width="90" height="30" as="geometry" />
        </mxCell>
        <mxCell id="KpB_KngCnUkT5IyetJgM-9" value="" style="outlineConnect=0;dashed=0;verticalLabelPosition=bottom;verticalAlign=top;align=center;html=1;shape=mxgraph.aws3.ec2;fillColor=#F58534;gradientColor=none;" parent="1" vertex="1">
          <mxGeometry x="980" y="20" width="76.5" height="93" as="geometry" />
        </mxCell>
        <mxCell id="KpB_KngCnUkT5IyetJgM-13" style="edgeStyle=orthogonalEdgeStyle;rounded=0;orthogonalLoop=1;jettySize=auto;html=1;" parent="1" source="KpB_KngCnUkT5IyetJgM-10" target="KpB_KngCnUkT5IyetJgM-9" edge="1">
          <mxGeometry relative="1" as="geometry">
            <Array as="points">
              <mxPoint x="880" y="160" />
              <mxPoint x="880" y="67" />
            </Array>
          </mxGeometry>
        </mxCell>
        <mxCell id="KpB_KngCnUkT5IyetJgM-14" style="edgeStyle=orthogonalEdgeStyle;rounded=0;orthogonalLoop=1;jettySize=auto;html=1;" parent="1" source="KpB_KngCnUkT5IyetJgM-10" target="KpB_KngCnUkT5IyetJgM-11" edge="1">
          <mxGeometry relative="1" as="geometry">
            <Array as="points">
              <mxPoint x="880" y="160" />
              <mxPoint x="880" y="244" />
            </Array>
          </mxGeometry>
        </mxCell>
        <mxCell id="KpB_KngCnUkT5IyetJgM-10" value="" style="outlineConnect=0;dashed=0;verticalLabelPosition=bottom;verticalAlign=top;align=center;html=1;shape=mxgraph.aws3.auto_scaling;fillColor=#F58534;gradientColor=none;" parent="1" vertex="1">
          <mxGeometry x="730" y="121.75" width="79.5" height="76.5" as="geometry" />
        </mxCell>
        <mxCell id="KpB_KngCnUkT5IyetJgM-11" value="" style="outlineConnect=0;dashed=0;verticalLabelPosition=bottom;verticalAlign=top;align=center;html=1;shape=mxgraph.aws3.ec2;fillColor=#F58534;gradientColor=none;" parent="1" vertex="1">
          <mxGeometry x="980" y="197" width="76.5" height="93" as="geometry" />
        </mxCell>
        <mxCell id="KpB_KngCnUkT5IyetJgM-12" value="Auto Scaling group" style="text;html=1;align=center;verticalAlign=middle;resizable=0;points=[];autosize=1;strokeColor=none;fillColor=none;" parent="1" vertex="1">
          <mxGeometry x="709.75" y="209" width="120" height="20" as="geometry" />
        </mxCell>
        <mxCell id="KpB_KngCnUkT5IyetJgM-16" value="EC2" style="text;html=1;align=center;verticalAlign=middle;resizable=0;points=[];autosize=1;strokeColor=none;fillColor=none;" parent="1" vertex="1">
          <mxGeometry x="998.25" y="120" width="40" height="20" as="geometry" />
        </mxCell>
        <mxCell id="KpB_KngCnUkT5IyetJgM-17" value="EC2" style="text;html=1;align=center;verticalAlign=middle;resizable=0;points=[];autosize=1;strokeColor=none;fillColor=none;" parent="1" vertex="1">
          <mxGeometry x="998.25" y="300" width="40" height="20" as="geometry" />
        </mxCell>
        <mxCell id="KpB_KngCnUkT5IyetJgM-21" value="Staging VPC" style="sketch=0;outlineConnect=0;gradientColor=none;html=1;whiteSpace=wrap;fontSize=12;fontStyle=0;shape=mxgraph.aws4.group;grIcon=mxgraph.aws4.group_vpc;strokeColor=#879196;fillColor=none;verticalAlign=top;align=left;spacingLeft=30;fontColor=#879196;dashed=0;" parent="1" vertex="1">
          <mxGeometry x="680" y="350" width="390" height="320" as="geometry" />
        </mxCell>
        <mxCell id="KpB_KngCnUkT5IyetJgM-22" value="" style="outlineConnect=0;dashed=0;verticalLabelPosition=bottom;verticalAlign=top;align=center;html=1;shape=mxgraph.aws3.ec2;fillColor=#F58534;gradientColor=none;" parent="1" vertex="1">
          <mxGeometry x="980" y="370" width="76.5" height="93" as="geometry" />
        </mxCell>
        <mxCell id="KpB_KngCnUkT5IyetJgM-23" style="edgeStyle=orthogonalEdgeStyle;rounded=0;orthogonalLoop=1;jettySize=auto;html=1;" parent="1" source="KpB_KngCnUkT5IyetJgM-25" target="KpB_KngCnUkT5IyetJgM-22" edge="1">
          <mxGeometry relative="1" as="geometry">
            <Array as="points">
              <mxPoint x="880" y="510" />
              <mxPoint x="880" y="417" />
            </Array>
          </mxGeometry>
        </mxCell>
        <mxCell id="KpB_KngCnUkT5IyetJgM-24" style="edgeStyle=orthogonalEdgeStyle;rounded=0;orthogonalLoop=1;jettySize=auto;html=1;" parent="1" source="KpB_KngCnUkT5IyetJgM-25" target="KpB_KngCnUkT5IyetJgM-26" edge="1">
          <mxGeometry relative="1" as="geometry">
            <Array as="points">
              <mxPoint x="880" y="510" />
              <mxPoint x="880" y="594" />
            </Array>
          </mxGeometry>
        </mxCell>
        <mxCell id="KpB_KngCnUkT5IyetJgM-25" value="" style="outlineConnect=0;dashed=0;verticalLabelPosition=bottom;verticalAlign=top;align=center;html=1;shape=mxgraph.aws3.auto_scaling;fillColor=#F58534;gradientColor=none;" parent="1" vertex="1">
          <mxGeometry x="730" y="471.75" width="79.5" height="76.5" as="geometry" />
        </mxCell>
        <mxCell id="KpB_KngCnUkT5IyetJgM-26" value="" style="outlineConnect=0;dashed=0;verticalLabelPosition=bottom;verticalAlign=top;align=center;html=1;shape=mxgraph.aws3.ec2;fillColor=#F58534;gradientColor=none;" parent="1" vertex="1">
          <mxGeometry x="980" y="547" width="76.5" height="93" as="geometry" />
        </mxCell>
        <mxCell id="KpB_KngCnUkT5IyetJgM-27" value="Auto Scaling group" style="text;html=1;align=center;verticalAlign=middle;resizable=0;points=[];autosize=1;strokeColor=none;fillColor=none;" parent="1" vertex="1">
          <mxGeometry x="709.75" y="559" width="120" height="20" as="geometry" />
        </mxCell>
        <mxCell id="KpB_KngCnUkT5IyetJgM-28" value="EC2" style="text;html=1;align=center;verticalAlign=middle;resizable=0;points=[];autosize=1;strokeColor=none;fillColor=none;" parent="1" vertex="1">
          <mxGeometry x="998.25" y="470" width="40" height="20" as="geometry" />
        </mxCell>
        <mxCell id="KpB_KngCnUkT5IyetJgM-29" value="EC2" style="text;html=1;align=center;verticalAlign=middle;resizable=0;points=[];autosize=1;strokeColor=none;fillColor=none;" parent="1" vertex="1">
          <mxGeometry x="998.25" y="650" width="40" height="20" as="geometry" />
        </mxCell>
        <mxCell id="KpB_KngCnUkT5IyetJgM-30" value="Prod VPC" style="sketch=0;outlineConnect=0;gradientColor=none;html=1;whiteSpace=wrap;fontSize=12;fontStyle=0;shape=mxgraph.aws4.group;grIcon=mxgraph.aws4.group_vpc;strokeColor=#879196;fillColor=none;verticalAlign=top;align=left;spacingLeft=30;fontColor=#879196;dashed=0;" parent="1" vertex="1">
          <mxGeometry x="680" y="700" width="390" height="320" as="geometry" />
        </mxCell>
        <mxCell id="KpB_KngCnUkT5IyetJgM-31" value="" style="outlineConnect=0;dashed=0;verticalLabelPosition=bottom;verticalAlign=top;align=center;html=1;shape=mxgraph.aws3.ec2;fillColor=#F58534;gradientColor=none;" parent="1" vertex="1">
          <mxGeometry x="980" y="720" width="76.5" height="93" as="geometry" />
        </mxCell>
        <mxCell id="KpB_KngCnUkT5IyetJgM-32" style="edgeStyle=orthogonalEdgeStyle;rounded=0;orthogonalLoop=1;jettySize=auto;html=1;" parent="1" source="KpB_KngCnUkT5IyetJgM-34" target="KpB_KngCnUkT5IyetJgM-31" edge="1">
          <mxGeometry relative="1" as="geometry">
            <Array as="points">
              <mxPoint x="880" y="860" />
              <mxPoint x="880" y="767" />
            </Array>
          </mxGeometry>
        </mxCell>
        <mxCell id="KpB_KngCnUkT5IyetJgM-33" style="edgeStyle=orthogonalEdgeStyle;rounded=0;orthogonalLoop=1;jettySize=auto;html=1;" parent="1" source="KpB_KngCnUkT5IyetJgM-34" target="KpB_KngCnUkT5IyetJgM-35" edge="1">
          <mxGeometry relative="1" as="geometry">
            <Array as="points">
              <mxPoint x="880" y="860" />
              <mxPoint x="880" y="944" />
            </Array>
          </mxGeometry>
        </mxCell>
        <mxCell id="KpB_KngCnUkT5IyetJgM-34" value="" style="outlineConnect=0;dashed=0;verticalLabelPosition=bottom;verticalAlign=top;align=center;html=1;shape=mxgraph.aws3.auto_scaling;fillColor=#F58534;gradientColor=none;" parent="1" vertex="1">
          <mxGeometry x="730" y="821.75" width="79.5" height="76.5" as="geometry" />
        </mxCell>
        <mxCell id="KpB_KngCnUkT5IyetJgM-35" value="" style="outlineConnect=0;dashed=0;verticalLabelPosition=bottom;verticalAlign=top;align=center;html=1;shape=mxgraph.aws3.ec2;fillColor=#F58534;gradientColor=none;" parent="1" vertex="1">
          <mxGeometry x="980" y="897" width="76.5" height="93" as="geometry" />
        </mxCell>
        <mxCell id="KpB_KngCnUkT5IyetJgM-36" value="Auto Scaling group" style="text;html=1;align=center;verticalAlign=middle;resizable=0;points=[];autosize=1;strokeColor=none;fillColor=none;" parent="1" vertex="1">
          <mxGeometry x="709.75" y="909" width="120" height="20" as="geometry" />
        </mxCell>
        <mxCell id="KpB_KngCnUkT5IyetJgM-37" value="EC2" style="text;html=1;align=center;verticalAlign=middle;resizable=0;points=[];autosize=1;strokeColor=none;fillColor=none;" parent="1" vertex="1">
          <mxGeometry x="998.25" y="820" width="40" height="20" as="geometry" />
        </mxCell>
        <mxCell id="KpB_KngCnUkT5IyetJgM-38" value="EC2" style="text;html=1;align=center;verticalAlign=middle;resizable=0;points=[];autosize=1;strokeColor=none;fillColor=none;" parent="1" vertex="1">
          <mxGeometry x="998.25" y="1000" width="40" height="20" as="geometry" />
        </mxCell>
        <mxCell id="KpB_KngCnUkT5IyetJgM-56" value="Deploy Application Pipeline" style="text;html=1;align=center;verticalAlign=middle;resizable=0;points=[];autosize=1;strokeColor=none;fillColor=none;fontStyle=1" parent="1" vertex="1">
          <mxGeometry x="-40" y="100" width="170" height="20" as="geometry" />
        </mxCell>
        <mxCell id="KpB_KngCnUkT5IyetJgM-58" style="edgeStyle=orthogonalEdgeStyle;rounded=0;orthogonalLoop=1;jettySize=auto;html=1;entryX=-0.03;entryY=0.09;entryDx=0;entryDy=0;entryPerimeter=0;" parent="1" target="KpB_KngCnUkT5IyetJgM-99" edge="1" source="KpB_KngCnUkT5IyetJgM-69">
          <mxGeometry relative="1" as="geometry">
            <mxPoint x="-432" y="631.25" as="sourcePoint" />
          </mxGeometry>
        </mxCell>
        <mxCell id="KpB_KngCnUkT5IyetJgM-60" value="Github" style="text;html=1;align=center;verticalAlign=middle;resizable=0;points=[];autosize=1;strokeColor=none;fillColor=none;" parent="1" vertex="1">
          <mxGeometry x="-475.5" y="657" width="50" height="20" as="geometry" />
        </mxCell>
        <mxCell id="KpB_KngCnUkT5IyetJgM-62" value="" style="sketch=0;points=[[0,0,0],[0.25,0,0],[0.5,0,0],[0.75,0,0],[1,0,0],[0,1,0],[0.25,1,0],[0.5,1,0],[0.75,1,0],[1,1,0],[0,0.25,0],[0,0.5,0],[0,0.75,0],[1,0.25,0],[1,0.5,0],[1,0.75,0]];outlineConnect=0;fontColor=#232F3E;gradientColor=#4D72F3;gradientDirection=north;fillColor=#3334B9;strokeColor=#ffffff;dashed=0;verticalLabelPosition=bottom;verticalAlign=top;align=center;html=1;fontSize=12;fontStyle=0;aspect=fixed;shape=mxgraph.aws4.resourceIcon;resIcon=mxgraph.aws4.codebuild;" parent="1" vertex="1">
          <mxGeometry x="-310" y="592.25" width="78" height="78" as="geometry" />
        </mxCell>
        <mxCell id="KpB_KngCnUkT5IyetJgM-63" value="Terraform Plan Dev&lt;br&gt;(CodeBuild)" style="text;html=1;align=center;verticalAlign=middle;resizable=0;points=[];autosize=1;strokeColor=none;fillColor=none;" parent="1" vertex="1">
          <mxGeometry x="-331" y="677.25" width="120" height="30" as="geometry" />
        </mxCell>
        <mxCell id="KpB_KngCnUkT5IyetJgM-68" value="Deploy Application Pipeline" style="text;html=1;align=center;verticalAlign=middle;resizable=0;points=[];autosize=1;strokeColor=none;fillColor=none;fontStyle=1" parent="1" vertex="1">
          <mxGeometry x="-90" y="539" width="170" height="20" as="geometry" />
        </mxCell>
        <mxCell id="KpB_KngCnUkT5IyetJgM-69" value="" style="dashed=0;outlineConnect=0;html=1;align=center;labelPosition=center;verticalLabelPosition=bottom;verticalAlign=top;shape=mxgraph.weblogos.github;fillColor=none;" parent="1" vertex="1">
          <mxGeometry x="-488" y="579" width="75" height="75" as="geometry" />
        </mxCell>
        <mxCell id="KpB_KngCnUkT5IyetJgM-70" value="" style="sketch=0;points=[[0,0,0],[0.25,0,0],[0.5,0,0],[0.75,0,0],[1,0,0],[0,1,0],[0.25,1,0],[0.5,1,0],[0.75,1,0],[1,1,0],[0,0.25,0],[0,0.5,0],[0,0.75,0],[1,0.25,0],[1,0.5,0],[1,0.75,0]];outlineConnect=0;fontColor=#232F3E;gradientColor=#4D72F3;gradientDirection=north;fillColor=#3334B9;strokeColor=#ffffff;dashed=0;verticalLabelPosition=bottom;verticalAlign=top;align=center;html=1;fontSize=12;fontStyle=0;aspect=fixed;shape=mxgraph.aws4.resourceIcon;resIcon=mxgraph.aws4.codebuild;" parent="1" vertex="1">
          <mxGeometry x="66" y="587" width="78" height="78" as="geometry" />
        </mxCell>
        <mxCell id="KpB_KngCnUkT5IyetJgM-71" value="Terraform Apply Dev&lt;br&gt;(CodeBuild)" style="text;html=1;align=center;verticalAlign=middle;resizable=0;points=[];autosize=1;strokeColor=none;fillColor=none;" parent="1" vertex="1">
          <mxGeometry x="51" y="666" width="120" height="30" as="geometry" />
        </mxCell>
        <mxCell id="KpB_KngCnUkT5IyetJgM-73" value="" style="sketch=0;points=[[0,0,0],[0.25,0,0],[0.5,0,0],[0.75,0,0],[1,0,0],[0,1,0],[0.25,1,0],[0.5,1,0],[0.75,1,0],[1,1,0],[0,0.25,0],[0,0.5,0],[0,0.75,0],[1,0.25,0],[1,0.5,0],[1,0.75,0]];outlineConnect=0;fontColor=#232F3E;gradientColor=#4D72F3;gradientDirection=north;fillColor=#3334B9;strokeColor=#ffffff;dashed=0;verticalLabelPosition=bottom;verticalAlign=top;align=center;html=1;fontSize=12;fontStyle=0;aspect=fixed;shape=mxgraph.aws4.resourceIcon;resIcon=mxgraph.aws4.codepipeline;" parent="1" vertex="1">
          <mxGeometry x="-425" y="480" width="78" height="78" as="geometry" />
        </mxCell>
        <mxCell id="KpB_KngCnUkT5IyetJgM-74" value="CodePipeline" style="text;html=1;align=center;verticalAlign=middle;resizable=0;points=[];autosize=1;strokeColor=none;fillColor=none;" parent="1" vertex="1">
          <mxGeometry x="-432" y="561" width="90" height="20" as="geometry" />
        </mxCell>
        <mxCell id="KpB_KngCnUkT5IyetJgM-75" value="" style="sketch=0;points=[[0,0,0],[0.25,0,0],[0.5,0,0],[0.75,0,0],[1,0,0],[0,1,0],[0.25,1,0],[0.5,1,0],[0.75,1,0],[1,1,0],[0,0.25,0],[0,0.5,0],[0,0.75,0],[1,0.25,0],[1,0.5,0],[1,0.75,0]];outlineConnect=0;fontColor=#232F3E;gradientColor=#4D72F3;gradientDirection=north;fillColor=#3334B9;strokeColor=#ffffff;dashed=0;verticalLabelPosition=bottom;verticalAlign=top;align=center;html=1;fontSize=12;fontStyle=0;aspect=fixed;shape=mxgraph.aws4.resourceIcon;resIcon=mxgraph.aws4.codepipeline;" parent="1" vertex="1">
          <mxGeometry x="-440" y="40" width="78" height="78" as="geometry" />
        </mxCell>
        <mxCell id="KpB_KngCnUkT5IyetJgM-76" value="CodePipeline" style="text;html=1;align=center;verticalAlign=middle;resizable=0;points=[];autosize=1;strokeColor=none;fillColor=none;" parent="1" vertex="1">
          <mxGeometry x="-446" y="127" width="90" height="20" as="geometry" />
        </mxCell>
        <mxCell id="KpB_KngCnUkT5IyetJgM-78" value="" style="sketch=0;points=[[0,0,0],[0.25,0,0],[0.5,0,0],[0.75,0,0],[1,0,0],[0,1,0],[0.25,1,0],[0.5,1,0],[0.75,1,0],[1,1,0],[0,0.25,0],[0,0.5,0],[0,0.75,0],[1,0.25,0],[1,0.5,0],[1,0.75,0]];outlineConnect=0;fontColor=#232F3E;gradientColor=#4D72F3;gradientDirection=north;fillColor=#3334B9;strokeColor=#ffffff;dashed=0;verticalLabelPosition=bottom;verticalAlign=top;align=center;html=1;fontSize=12;fontStyle=0;aspect=fixed;shape=mxgraph.aws4.resourceIcon;resIcon=mxgraph.aws4.codebuild;" parent="1" vertex="1">
          <mxGeometry x="66" y="744.75" width="78" height="78" as="geometry" />
        </mxCell>
        <mxCell id="KpB_KngCnUkT5IyetJgM-79" value="Terraform Apply Staging&lt;br&gt;(CodeBuild)" style="text;html=1;align=center;verticalAlign=middle;resizable=0;points=[];autosize=1;strokeColor=none;fillColor=none;" parent="1" vertex="1">
          <mxGeometry x="43" y="826" width="140" height="30" as="geometry" />
        </mxCell>
        <mxCell id="dyizjhoTMHPbMdRWWlDq-1" style="edgeStyle=orthogonalEdgeStyle;rounded=0;orthogonalLoop=1;jettySize=auto;html=1;" edge="1" parent="1" source="KpB_KngCnUkT5IyetJgM-81" target="KpB_KngCnUkT5IyetJgM-100">
          <mxGeometry relative="1" as="geometry">
            <Array as="points">
              <mxPoint x="20" y="626" />
              <mxPoint x="20" y="626" />
            </Array>
          </mxGeometry>
        </mxCell>
        <mxCell id="KpB_KngCnUkT5IyetJgM-81" value="" style="verticalLabelPosition=bottom;html=1;verticalAlign=top;align=center;strokeColor=none;fillColor=#00BEF2;shape=mxgraph.azure.user;dashed=1;" parent="1" vertex="1">
          <mxGeometry x="-105.75" y="601" width="47.5" height="50" as="geometry" />
        </mxCell>
        <mxCell id="KpB_KngCnUkT5IyetJgM-83" value="TerraformPlanApproval Dev/Staging&lt;br&gt;&amp;nbsp;(ManualApproval)" style="text;html=1;align=center;verticalAlign=middle;resizable=0;points=[];autosize=1;strokeColor=none;fillColor=none;" parent="1" vertex="1">
          <mxGeometry x="-187" y="665" width="210" height="30" as="geometry" />
        </mxCell>
        <mxCell id="KpB_KngCnUkT5IyetJgM-84" value="" style="sketch=0;points=[[0,0,0],[0.25,0,0],[0.5,0,0],[0.75,0,0],[1,0,0],[0,1,0],[0.25,1,0],[0.5,1,0],[0.75,1,0],[1,1,0],[0,0.25,0],[0,0.5,0],[0,0.75,0],[1,0.25,0],[1,0.5,0],[1,0.75,0]];outlineConnect=0;fontColor=#232F3E;gradientColor=#4D72F3;gradientDirection=north;fillColor=#3334B9;strokeColor=#ffffff;dashed=0;verticalLabelPosition=bottom;verticalAlign=top;align=center;html=1;fontSize=12;fontStyle=0;aspect=fixed;shape=mxgraph.aws4.resourceIcon;resIcon=mxgraph.aws4.codebuild;" parent="1" vertex="1">
          <mxGeometry x="-310" y="721" width="78" height="78" as="geometry" />
        </mxCell>
        <mxCell id="KpB_KngCnUkT5IyetJgM-85" value="Terraform Plan Staging&lt;br&gt;(CodeBuild)" style="text;html=1;align=center;verticalAlign=middle;resizable=0;points=[];autosize=1;strokeColor=none;fillColor=none;" parent="1" vertex="1">
          <mxGeometry x="-341" y="806" width="140" height="30" as="geometry" />
        </mxCell>
        <mxCell id="KpB_KngCnUkT5IyetJgM-86" value="" style="sketch=0;points=[[0,0,0],[0.25,0,0],[0.5,0,0],[0.75,0,0],[1,0,0],[0,1,0],[0.25,1,0],[0.5,1,0],[0.75,1,0],[1,1,0],[0,0.25,0],[0,0.5,0],[0,0.75,0],[1,0.25,0],[1,0.5,0],[1,0.75,0]];outlineConnect=0;fontColor=#232F3E;gradientColor=#4D72F3;gradientDirection=north;fillColor=#3334B9;strokeColor=#ffffff;dashed=0;verticalLabelPosition=bottom;verticalAlign=top;align=center;html=1;fontSize=12;fontStyle=0;aspect=fixed;shape=mxgraph.aws4.resourceIcon;resIcon=mxgraph.aws4.codebuild;" parent="1" vertex="1">
          <mxGeometry x="-306" y="851" width="78" height="78" as="geometry" />
        </mxCell>
        <mxCell id="KpB_KngCnUkT5IyetJgM-87" value="Terraform Plan Prod&lt;br&gt;(CodeBuild)" style="text;html=1;align=center;verticalAlign=middle;resizable=0;points=[];autosize=1;strokeColor=none;fillColor=none;" parent="1" vertex="1">
          <mxGeometry x="-327" y="936" width="120" height="30" as="geometry" />
        </mxCell>
        <mxCell id="KpB_KngCnUkT5IyetJgM-98" style="edgeStyle=orthogonalEdgeStyle;rounded=0;orthogonalLoop=1;jettySize=auto;html=1;" parent="1" source="KpB_KngCnUkT5IyetJgM-91" target="KpB_KngCnUkT5IyetJgM-96" edge="1">
          <mxGeometry relative="1" as="geometry" />
        </mxCell>
        <mxCell id="KpB_KngCnUkT5IyetJgM-91" value="" style="verticalLabelPosition=bottom;html=1;verticalAlign=top;align=center;strokeColor=none;fillColor=#00BEF2;shape=mxgraph.azure.user;dashed=1;" parent="1" vertex="1">
          <mxGeometry x="272.25" y="593.75" width="47.5" height="50" as="geometry" />
        </mxCell>
        <mxCell id="KpB_KngCnUkT5IyetJgM-92" value="TerraformPlanApproval Prod&lt;br&gt;&amp;nbsp;(ManualApproval)" style="text;html=1;align=center;verticalAlign=middle;resizable=0;points=[];autosize=1;strokeColor=none;fillColor=none;" parent="1" vertex="1">
          <mxGeometry x="216" y="665" width="170" height="30" as="geometry" />
        </mxCell>
        <mxCell id="KpB_KngCnUkT5IyetJgM-96" value="" style="sketch=0;points=[[0,0,0],[0.25,0,0],[0.5,0,0],[0.75,0,0],[1,0,0],[0,1,0],[0.25,1,0],[0.5,1,0],[0.75,1,0],[1,1,0],[0,0.25,0],[0,0.5,0],[0,0.75,0],[1,0.25,0],[1,0.5,0],[1,0.75,0]];outlineConnect=0;fontColor=#232F3E;gradientColor=#4D72F3;gradientDirection=north;fillColor=#3334B9;strokeColor=#ffffff;dashed=0;verticalLabelPosition=bottom;verticalAlign=top;align=center;html=1;fontSize=12;fontStyle=0;aspect=fixed;shape=mxgraph.aws4.resourceIcon;resIcon=mxgraph.aws4.codebuild;" parent="1" vertex="1">
          <mxGeometry x="431" y="579" width="78" height="78" as="geometry" />
        </mxCell>
        <mxCell id="KpB_KngCnUkT5IyetJgM-97" value="Terraform Apply Prod&lt;br&gt;(CodeBuild)" style="text;html=1;align=center;verticalAlign=middle;resizable=0;points=[];autosize=1;strokeColor=none;fillColor=none;" parent="1" vertex="1">
          <mxGeometry x="405" y="666" width="130" height="30" as="geometry" />
        </mxCell>
        <mxCell id="KpB_KngCnUkT5IyetJgM-117" style="edgeStyle=orthogonalEdgeStyle;rounded=0;orthogonalLoop=1;jettySize=auto;html=1;" parent="1" source="KpB_KngCnUkT5IyetJgM-108" target="KpB_KngCnUkT5IyetJgM-25" edge="1">
          <mxGeometry relative="1" as="geometry">
            <Array as="points">
              <mxPoint x="253" y="510" />
            </Array>
          </mxGeometry>
        </mxCell>
        <mxCell id="KpB_KngCnUkT5IyetJgM-108" value="" style="sketch=0;points=[[0,0,0],[0.25,0,0],[0.5,0,0],[0.75,0,0],[1,0,0],[0,1,0],[0.25,1,0],[0.5,1,0],[0.75,1,0],[1,1,0],[0,0.25,0],[0,0.5,0],[0,0.75,0],[1,0.25,0],[1,0.5,0],[1,0.75,0]];outlineConnect=0;fontColor=#232F3E;gradientColor=#4D72F3;gradientDirection=north;fillColor=#3334B9;strokeColor=#ffffff;dashed=0;verticalLabelPosition=bottom;verticalAlign=top;align=center;html=1;fontSize=12;fontStyle=0;aspect=fixed;shape=mxgraph.aws4.resourceIcon;resIcon=mxgraph.aws4.codedeploy;" parent="1" vertex="1">
          <mxGeometry x="28" y="290" width="78" height="78" as="geometry" />
        </mxCell>
        <mxCell id="KpB_KngCnUkT5IyetJgM-109" value="Deploy Staging&lt;br&gt;(CodeDeploy)" style="text;html=1;align=center;verticalAlign=middle;resizable=0;points=[];autosize=1;strokeColor=none;fillColor=none;" parent="1" vertex="1">
          <mxGeometry x="17" y="375" width="100" height="30" as="geometry" />
        </mxCell>
        <mxCell id="KpB_KngCnUkT5IyetJgM-116" style="edgeStyle=orthogonalEdgeStyle;rounded=0;orthogonalLoop=1;jettySize=auto;html=1;" parent="1" source="KpB_KngCnUkT5IyetJgM-110" target="KpB_KngCnUkT5IyetJgM-113" edge="1">
          <mxGeometry relative="1" as="geometry">
            <Array as="points" />
          </mxGeometry>
        </mxCell>
        <mxCell id="KpB_KngCnUkT5IyetJgM-110" value="" style="verticalLabelPosition=bottom;html=1;verticalAlign=top;align=center;strokeColor=none;fillColor=#00BEF2;shape=mxgraph.azure.user;dashed=1;" parent="1" vertex="1">
          <mxGeometry x="220.25" y="160" width="47.5" height="50" as="geometry" />
        </mxCell>
        <mxCell id="KpB_KngCnUkT5IyetJgM-111" value="Approval Prod&lt;br&gt;&amp;nbsp;(ManualApproval)" style="text;html=1;align=center;verticalAlign=middle;resizable=0;points=[];autosize=1;strokeColor=none;fillColor=none;" parent="1" vertex="1">
          <mxGeometry x="194" y="231.25" width="110" height="30" as="geometry" />
        </mxCell>
        <mxCell id="KpB_KngCnUkT5IyetJgM-113" value="" style="sketch=0;points=[[0,0,0],[0.25,0,0],[0.5,0,0],[0.75,0,0],[1,0,0],[0,1,0],[0.25,1,0],[0.5,1,0],[0.75,1,0],[1,1,0],[0,0.25,0],[0,0.5,0],[0,0.75,0],[1,0.25,0],[1,0.5,0],[1,0.75,0]];outlineConnect=0;fontColor=#232F3E;gradientColor=#4D72F3;gradientDirection=north;fillColor=#3334B9;strokeColor=#ffffff;dashed=0;verticalLabelPosition=bottom;verticalAlign=top;align=center;html=1;fontSize=12;fontStyle=0;aspect=fixed;shape=mxgraph.aws4.resourceIcon;resIcon=mxgraph.aws4.codedeploy;" parent="1" vertex="1">
          <mxGeometry x="334" y="154" width="78" height="78" as="geometry" />
        </mxCell>
        <mxCell id="KpB_KngCnUkT5IyetJgM-114" value="Deploy Prod&lt;br&gt;(CodeDeploy)" style="text;html=1;align=center;verticalAlign=middle;resizable=0;points=[];autosize=1;strokeColor=none;fillColor=none;" parent="1" vertex="1">
          <mxGeometry x="334" y="240" width="90" height="30" as="geometry" />
        </mxCell>
        <mxCell id="dyizjhoTMHPbMdRWWlDq-4" style="edgeStyle=orthogonalEdgeStyle;rounded=0;orthogonalLoop=1;jettySize=auto;html=1;" edge="1" parent="1" source="dyizjhoTMHPbMdRWWlDq-2" target="KpB_KngCnUkT5IyetJgM-110">
          <mxGeometry relative="1" as="geometry">
            <Array as="points">
              <mxPoint x="190" y="185" />
              <mxPoint x="190" y="185" />
            </Array>
          </mxGeometry>
        </mxCell>
        <mxCell id="dyizjhoTMHPbMdRWWlDq-2" value="" style="rounded=0;whiteSpace=wrap;html=1;fillColor=none;dashed=1;" vertex="1" parent="1">
          <mxGeometry x="4" y="140" width="126" height="270" as="geometry" />
        </mxCell>
      </root>
    </mxGraphModel>
  </diagram>
</mxfile>
